<mxfile host="app.diagrams.net" modified="2023-12-01T08:44:31.614Z" agent="Mozilla/5.0 (Windows NT 10.0; Win64; x64) AppleWebKit/537.36 (KHTML, like Gecko) Chrome/119.0.0.0 Safari/537.36" version="22.1.5" etag="qDECzr8YzanwRdWsmg8B" type="github">
  <diagram name="Page-1" id="ssiGtlg-l_8J-GArVfnE">
    <mxGraphModel>
      <root>
        <mxCell id="0" />
        <mxCell id="1" parent="0" />
      </root>
    </mxGraphModel>
  </diagram>
</mxfile>
